<svg version="1.1" xmlns="http://www.w3.org/2000/svg" viewBox="0 0 1205.2103174603176 3175.3730158730154" width="1205.2103174603176" height="3175.3730158730154">
  <!-- svg-source:excalidraw -->
  
  <defs>
    <style>
      @font-face {
        font-family: "Virgil";
        src: url("https://excalidraw.com/Virgil.woff2");
      }
      @font-face {
        font-family: "Cascadia";
        src: url("https://excalidraw.com/Cascadia.woff2");
      }
    </style>
  </defs>
  <rect x="0" y="0" width="1205.2103174603176" height="3175.3730158730154" fill="#ffffff"></rect><g stroke-linecap="round" transform="translate(308.6031746031747 246) rotate(0 80 88.5)"><path d="M0.43 -1.22 C59.69 -0.11, 122.85 1.14, 161.93 0.24 M0.12 0.75 C50.39 -1.02, 98.59 -0.12, 160.17 -0.22 M159.34 -0.54 C159.99 58.15, 159.63 114.54, 158.48 178.99 M160.02 0.32 C161.63 53.85, 161 106.32, 159.27 177.56 M161.88 178.01 C113.71 176.88, 66.8 174.14, 0.84 175.13 M160.47 176.31 C119.69 176.27, 81.71 177.08, 0.6 176.29 M-0.8 175.48 C-2.21 128.94, -2.18 79.57, 0.84 1.5 M0.53 177.8 C0.87 135.54, 1.46 93.16, 0.23 0.07" stroke="#000000" stroke-width="1" fill="none"></path></g><g stroke-linecap="round" transform="translate(893.1031746031747 250.5) rotate(0 85.5 83)"><path d="M1.7 -1.51 C36.92 -0.63, 75.98 1.31, 170.18 -0.42 M0.77 -0.86 C56.64 0.36, 111.41 1.46, 170.65 -0.85 M169.94 -1.46 C171.04 45.06, 170.39 93.01, 169.92 164.71 M171.25 -0.15 C169.92 46.9, 171.5 93.37, 170.39 165.58 M172.13 164.95 C126.64 166.55, 81.3 167.32, -1.76 165.99 M170.39 165.17 C133.28 167.42, 97.39 166.88, -0.04 166.55 M1.94 166.22 C1.67 130.78, 0.62 98.37, 0.14 0.06 M-0.45 165.13 C0.74 122.35, 0.47 77.47, -0.12 -0.53" stroke="#000000" stroke-width="1" fill="none"></path></g><g stroke-linecap="round"><g transform="translate(481.6031746031748 256.99555147656156) rotate(0 54.23504578993652 0.9629765337151355)"><path d="M0.54 -0.47 C18.83 -0.01, 91.25 1.92, 109.11 2.56 M-0.64 -1.75 C17.6 -1.16, 89.99 2.61, 108.45 3.68" stroke="#000000" stroke-width="1" fill="none"></path></g><g transform="translate(481.6031746031748 256.99555147656156) rotate(0 54.23504578993652 0.9629765337151355)"><path d="M78.97 13.32 C85.51 8.67, 93.88 7.01, 108.95 2.11 M79.96 12.35 C89.13 9.67, 99.32 6.08, 109.07 3.53" stroke="#000000" stroke-width="1" fill="none"></path></g><g transform="translate(481.6031746031748 256.99555147656156) rotate(0 54.23504578993652 0.9629765337151355)"><path d="M80.08 -7.17 C86.32 -6.78, 94.42 -3.39, 108.95 2.11 M81.07 -8.14 C89.72 -3.66, 99.52 -0.09, 109.07 3.53" stroke="#000000" stroke-width="1" fill="none"></path></g></g><g transform="translate(313.6031746031747 306.5) rotate(0 75 28)"><text x="75" y="19" font-family="Virgil, Segoe UI Emoji" font-size="20px" fill="#000000" text-anchor="middle" style="white-space: pre;" direction="ltr">Browser </text><text x="75" y="47" font-family="Virgil, Segoe UI Emoji" font-size="20px" fill="#000000" text-anchor="middle" style="white-space: pre;" direction="ltr">Client</text></g><g transform="translate(898.1031746031747 320.5) rotate(0 80.5 14)"><text x="80.5" y="19" font-family="Virgil, Segoe UI Emoji" font-size="20px" fill="#000000" text-anchor="middle" style="white-space: pre;" direction="ltr">ML Backend</text></g><g transform="translate(252.6031746031747 156.5) rotate(0 98.5 18.5)"><text x="0" y="26" font-family="Virgil, Segoe UI Emoji" font-size="28px" fill="#000000" text-anchor="start" style="white-space: pre;" direction="ltr">Corpus Upload</text></g><g stroke-linecap="round" transform="translate(333.3531746031747 777.5) rotate(0 80 88.5)"><path d="M0.43 1.28 C40.08 0.24, 77.87 0.1, 158.52 -0.58 M0.54 0.65 C42.59 -1.46, 86.05 -1.63, 160.32 0 M158.26 0.61 C158.33 61.26, 161.73 120, 158.04 178.42 M159.99 -0.7 C159.85 57.19, 158.7 117.16, 160.8 177.55 M161.99 176.97 C121.63 176.09, 79.83 177.44, 1.16 177.91 M160.21 177.72 C106.64 179.06, 52.7 179.4, -0.97 176.87 M-0.87 175.12 C-0.28 134.57, 0.26 88.39, -1.94 1.02 M-0.65 176.99 C0.78 107.88, 0.43 36.81, 0.73 0.7" stroke="#000000" stroke-width="1" fill="none"></path></g><g stroke-linecap="round" transform="translate(618.8531746031747 779) rotate(0 82 86.5)"><path d="M1.28 1.86 C40.53 1.08, 79.13 -1.84, 163.42 -0.64 M0.65 -0.32 C41.13 -0.65, 82.73 -0.57, 164 0.39 M164.61 -1.44 C164.95 51.63, 163.74 97.38, 165.42 173.57 M163.3 0.9 C164.26 41.39, 166.04 84.08, 164.55 172.51 M163.97 174.76 C129.25 174.7, 96.88 175.79, 0.91 173.75 M164.72 173.62 C111.63 174, 59.13 172.36, -0.13 172.48 M-1.88 173.38 C2.56 115.55, 0.23 54.32, 1.02 1.92 M-0.01 173.41 C-0.22 124.71, -1.19 77.03, 0.7 0.74" stroke="#000000" stroke-width="1" fill="none"></path></g><g stroke-linecap="round" transform="translate(987.8531746031747 943) rotate(0 85.5 250.5)"><path d="M1.86 1.78 C69.24 0.54, 134.13 -1.68, 170.36 -0.91 M-0.32 -0.64 C60.28 -1.93, 120.4 -1.12, 171.39 -0.13 M170.42 0.52 C170.04 139.86, 168.47 280.21, 171.23 500.53 M171.36 -0.4 C170.88 186.74, 171.29 373.07, 170.8 500.62 M172.76 499.96 C118.38 501.29, 66.77 501.89, 0.75 501.44 M171.62 501.47 C103.32 503.03, 33.36 502.1, -0.52 501.37 M0.15 501.57 C1.24 383.24, 0.09 266.62, 0.77 -0.16 M0.17 501.39 C1.33 316.31, 1.6 131.91, 0.3 -0.03" stroke="#000000" stroke-width="1" fill="none"></path></g><g stroke-linecap="round"><g transform="translate(528.0589410125269 815.4955514765616) rotate(0 43.198648027509535 1.0548492609653977)"><path d="M1.12 1.07 C15.43 1.25, 72.27 1.97, 86.15 1.89 M0.24 0.58 C14.45 0.38, 71.23 0.1, 85.66 0.28" stroke="#000000" stroke-width="1" fill="none"></path></g><g transform="translate(528.0589410125269 815.4955514765616) rotate(0 43.198648027509535 1.0548492609653977)"><path d="M59.22 11.91 C68.09 5.45, 74.95 3.02, 84.75 1.3 M56.8 10.71 C66.57 7.27, 77.37 3.73, 85.53 0.07" stroke="#000000" stroke-width="1" fill="none"></path></g><g transform="translate(528.0589410125269 815.4955514765616) rotate(0 43.198648027509535 1.0548492609653977)"><path d="M59.27 -8.62 C68.26 -8.47, 75.1 -4.3, 84.75 1.3 M56.85 -9.81 C66.73 -5.98, 77.52 -2.25, 85.53 0.07" stroke="#000000" stroke-width="1" fill="none"></path></g></g><g transform="translate(338.3531746031747 838) rotate(0 75 28)"><text x="75" y="19" font-family="Virgil, Segoe UI Emoji" font-size="20px" fill="#000000" text-anchor="middle" style="white-space: pre;" direction="ltr">Browser </text><text x="75" y="47" font-family="Virgil, Segoe UI Emoji" font-size="20px" fill="#000000" text-anchor="middle" style="white-space: pre;" direction="ltr">Client</text></g><g transform="translate(623.8531746031747 852.5) rotate(0 77 14)"><text x="77" y="19" font-family="Virgil, Segoe UI Emoji" font-size="20px" fill="#000000" text-anchor="middle" style="white-space: pre;" direction="ltr">Web App</text></g><g transform="translate(992.8531746031747 1179.5) rotate(0 80.5 14)"><text x="80.5" y="19" font-family="Virgil, Segoe UI Emoji" font-size="20px" fill="#000000" text-anchor="middle" style="white-space: pre;" direction="ltr">ML Backend</text></g><g stroke-linecap="round"><g transform="translate(793.3287698976067 954.1775966583847) rotate(0 87.32223125845655 -3.047871780176763)"><path d="M-0.89 -0.35 C28.22 -1.47, 145.96 -5.05, 175.53 -5.75 M0.85 -1.57 C29.69 -2.63, 145.18 -3.67, 174.38 -4.5" stroke="#000000" stroke-width="1" fill="none"></path></g><g transform="translate(793.3287698976067 954.1775966583847) rotate(0 87.32223125845655 -3.047871780176763)"><path d="M145.8 5.63 C155.79 3.49, 168.2 -0.22, 173.75 -5.78 M146.38 6.65 C155.41 2.48, 163.75 -0.5, 173.66 -3.84" stroke="#000000" stroke-width="1" fill="none"></path></g><g transform="translate(793.3287698976067 954.1775966583847) rotate(0 87.32223125845655 -3.047871780176763)"><path d="M145.44 -14.89 C155.73 -9.4, 168.27 -5.48, 173.75 -5.78 M146.01 -13.87 C155 -11.39, 163.45 -7.72, 173.66 -3.84" stroke="#000000" stroke-width="1" fill="none"></path></g></g><g stroke-linecap="round"><g transform="translate(842.4709214104371 1436.2310543857466) rotate(0 60.80667535718533 -0.7420426397610527)"><path d="M-0.38 -0.54 C20.1 -0.73, 101.57 -1.16, 122 -1.49 M1.62 1.78 C22.07 1.28, 101.34 -2.74, 121.37 -3.27" stroke="#000000" stroke-width="1" fill="none"></path></g><g transform="translate(842.4709214104371 1436.2310543857466) rotate(0 60.80667535718533 -0.7420426397610527)"><path d="M26.83 -9.98 C22.44 -7.42, 14.36 -7.64, 0.1 -2.16 M27.61 -11.21 C17.53 -7.11, 8.34 -3.29, 0.6 -0.5" stroke="#000000" stroke-width="1" fill="none"></path></g><g transform="translate(842.4709214104371 1436.2310543857466) rotate(0 60.80667535718533 -0.7420426397610527)"><path d="M26.97 10.54 C22.61 8.46, 14.5 3.6, 0.1 -2.16 M27.75 9.31 C17.62 6.59, 8.39 3.6, 0.6 -0.5" stroke="#000000" stroke-width="1" fill="none"></path></g></g><g stroke-linecap="round" transform="translate(598.1031746031747 251) rotate(0 85.5 83)"><path d="M-0.89 0.36 C36.59 1.24, 68.89 0.62, 172.66 -1.24 M0.41 0.25 C41.69 0.92, 84.94 0.78, 170.31 0.48 M169.51 1.29 C170.81 66.83, 173.71 131.53, 172.28 166.64 M171.92 -0.39 C170.75 60.3, 170.34 122.29, 171.58 166.72 M172.32 167.42 C117.1 167.28, 68.53 166.98, 0.81 166.76 M171.4 166.31 C116.83 163.98, 63.14 164.47, -0.76 166.45 M1.78 164.81 C0.11 128.9, 2.21 93.98, 1.09 0.05 M0.65 165.92 C-0.91 101.74, -0.55 34.83, -0.39 -0.8" stroke="#000000" stroke-width="1" fill="none"></path></g><g transform="translate(603.1031746031747 320) rotate(0 80.5 14)"><text x="80.5" y="19" font-family="Virgil, Segoe UI Emoji" font-size="20px" fill="#000000" text-anchor="middle" style="white-space: pre;" direction="ltr">Nginx</text></g><g stroke-linecap="round"><g transform="translate(778.326644048843 287.3280277471613) rotate(0 50.71572492917073 -0.8702074654861462)"><path d="M0.9 0.89 C18.01 0.59, 84.8 -0.3, 101.52 -0.75 M-0.09 0.32 C17 0.16, 84.05 -2.45, 100.83 -2.63" stroke="#000000" stroke-width="1" fill="none"></path></g><g transform="translate(778.326644048843 287.3280277471613) rotate(0 50.71572492917073 -0.8702074654861462)"><path d="M74.41 9.18 C79.28 6.24, 83.23 2.08, 101.64 -2.02 M72.75 7.61 C81.46 4.28, 88.63 2.5, 101.72 -3.23" stroke="#000000" stroke-width="1" fill="none"></path></g><g transform="translate(778.326644048843 287.3280277471613) rotate(0 50.71572492917073 -0.8702074654861462)"><path d="M73.87 -11.33 C79.03 -10.09, 83.09 -10.06, 101.64 -2.02 M72.2 -12.9 C80.94 -10.34, 88.26 -6.22, 101.72 -3.23" stroke="#000000" stroke-width="1" fill="none"></path></g></g><g transform="translate(472.6031746031747 207) rotate(0 73.5 13)"><text x="0" y="18" font-family="Virgil, Segoe UI Emoji" font-size="20px" fill="#000000" text-anchor="start" style="white-space: pre;" direction="ltr">fileshare creds</text></g><g stroke-linecap="round" transform="translate(882.1031746031747 10) rotate(0 85.5 83)"><path d="M-1.31 -1.94 C51.24 -1.02, 106.28 1.61, 171.98 1.51 M171.08 -0.65 C170.48 64.78, 170.47 127.17, 169.15 165.16 M172.18 164.97 C108.25 164.3, 46.97 164.94, 0.72 165.48 M-0.57 167.17 C0.71 130.64, 1.44 93.45, 1.19 1.45" stroke="#000000" stroke-width="1.5" fill="none" stroke-dasharray="8 9"></path></g><g transform="translate(887.1031746031747 79) rotate(0 80.5 14)"><text x="80.5" y="19" font-family="Virgil, Segoe UI Emoji" font-size="20px" fill="#000000" text-anchor="middle" style="white-space: pre;" direction="ltr">External Data</text></g><g transform="translate(987.1031746031747 203) rotate(0 44.5 13)"><text x="0" y="18" font-family="Virgil, Segoe UI Emoji" font-size="20px" fill="#000000" text-anchor="start" style="white-space: pre;" direction="ltr">Doc files</text></g><g stroke-linecap="round"><g transform="translate(967.4567637828316 190.85585304712822) rotate(0 -1.4097067603998994 23.926891394509468)"><path d="M-0.07 0.85 C-0.44 8.74, -1.69 39.92, -1.91 47.6 M-1.57 0.25 C-2.11 7.75, -2.71 37.74, -2.75 45.72" stroke="#000000" stroke-width="1" fill="none"></path></g><g transform="translate(967.4567637828316 190.85585304712822) rotate(0 -1.4097067603998994 23.926891394509468)"><path d="M-9.08 23.79 C-7.14 31.93, -5.74 38.99, -4.7 46.24 M-11.22 24.41 C-8.75 31.1, -5.32 38.59, -2.99 46.14" stroke="#000000" stroke-width="1" fill="none"></path></g><g transform="translate(967.4567637828316 190.85585304712822) rotate(0 -1.4097067603998994 23.926891394509468)"><path d="M7.05 24.02 C3.72 32.08, -0.17 39.06, -4.7 46.24 M4.92 24.64 C1.79 31.1, -0.39 38.51, -2.99 46.14" stroke="#000000" stroke-width="1" fill="none"></path></g></g><g transform="translate(275.6031746031747 649) rotate(0 74.5 18.5)"><text x="0" y="26" font-family="Virgil, Segoe UI Emoji" font-size="28px" fill="#000000" text-anchor="start" style="white-space: pre;" direction="ltr">Round Trip</text></g><g transform="translate(498.6031746031747 779) rotate(0 27 13)"><text x="0" y="18" font-family="Virgil, Segoe UI Emoji" font-size="20px" fill="#000000" text-anchor="start" style="white-space: pre;" direction="ltr">Input</text></g><g transform="translate(813.2460317460318 911.8571428571428) rotate(0 71 13)"><text x="0" y="18" font-family="Virgil, Segoe UI Emoji" font-size="20px" fill="#000000" text-anchor="start" style="white-space: pre;" direction="ltr">Modified Input</text></g><g stroke-linecap="round" transform="translate(656.6031746031747 1411.5) rotate(0 82 86.5)"><path d="M-1.11 -1.1 C41.87 1.57, 84.44 1.99, 162.01 0.28 M0.76 0.02 C46.85 -2.24, 90.99 -1.55, 163.06 0.2 M165.47 1.14 C163.82 41.84, 165.78 86.7, 164.26 173.68 M164.95 0.76 C166.13 54.63, 165.38 110.01, 164.03 172.61 M164.58 173.2 C105.31 172.31, 44.82 174.59, -0.32 174.01 M163.26 172.16 C118.42 171.83, 72.27 173.07, 0.43 172.06 M-0.09 173.14 C-0.17 130.87, -0.7 93.29, -1.71 -0.49 M-0.43 173.2 C-1.16 128.92, -0.33 82.89, -0.69 -0.62" stroke="#000000" stroke-width="1" fill="none"></path></g><g transform="translate(661.6031746031747 1485) rotate(0 77 14)"><text x="77" y="19" font-family="Virgil, Segoe UI Emoji" font-size="20px" fill="#000000" text-anchor="middle" style="white-space: pre;" direction="ltr">Web App</text></g><g transform="translate(848.6031746031747 1466) rotate(0 60 13)"><text x="0" y="18" font-family="Virgil, Segoe UI Emoji" font-size="20px" fill="#000000" text-anchor="start" style="white-space: pre;" direction="ltr">Raw Output</text></g><g stroke-linecap="round" transform="translate(336.6031746031747 1431.5) rotate(0 80 88.5)"><path d="M-0.14 -0.84 C56.37 -1.38, 115.05 0.52, 158.46 -1.28 M0.98 -0.67 C48.84 -1.73, 98.45 0.23, 160.48 0.09 M158.04 -1.85 C158.47 49.8, 161.42 97.93, 161.77 177.92 M159.83 -0.27 C158.88 40.83, 158.74 83.2, 160.61 177.61 M158.02 175.78 C113.72 177.15, 64.56 178.23, -0.41 175.48 M159.7 177.92 C116.31 177.44, 72 178.67, -0.69 176.23 M-0.41 177.19 C2.88 125.59, -0.08 76.87, -0.08 0.83 M-0.56 176.83 C2.17 131.56, 2.08 86.81, 0.66 -0.37" stroke="#000000" stroke-width="1" fill="none"></path></g><g transform="translate(341.6031746031747 1492) rotate(0 75 28)"><text x="75" y="19" font-family="Virgil, Segoe UI Emoji" font-size="20px" fill="#000000" text-anchor="middle" style="white-space: pre;" direction="ltr">Browser </text><text x="75" y="47" font-family="Virgil, Segoe UI Emoji" font-size="20px" fill="#000000" text-anchor="middle" style="white-space: pre;" direction="ltr">Client</text></g><g stroke-linecap="round"><g transform="translate(502.9692956297895 1478.9168172891266) rotate(0 74.61620159241886 -0.6658626741271974)"><path d="M0.47 -0.4 C25.35 -0.38, 124.83 -0.69, 149.98 -0.59 M-0.75 -1.65 C23.89 -1.48, 123.51 -0.17, 148.83 0.32" stroke="#000000" stroke-width="1" fill="none"></path></g><g transform="translate(502.9692956297895 1478.9168172891266) rotate(0 74.61620159241886 -0.6658626741271974)"><path d="M27.97 -11.36 C16.6 -5.27, 7.94 -4.08, 0.99 -0.52 M27.93 -9.76 C19.72 -7.65, 9.85 -3.58, 0.33 -0.38" stroke="#000000" stroke-width="1" fill="none"></path></g><g transform="translate(502.9692956297895 1478.9168172891266) rotate(0 74.61620159241886 -0.6658626741271974)"><path d="M28.01 9.16 C16.74 7.97, 8.07 1.88, 0.99 -0.52 M27.97 10.76 C19.74 6.21, 9.85 3.62, 0.33 -0.38" stroke="#000000" stroke-width="1" fill="none"></path></g></g><g stroke-linecap="round"><g transform="translate(604.1031746031747 942.4964823048836) rotate(0 -45.82677514385432 0.035870034741776635)"><path d="M0.88 -0.8 C-14.7 -0.67, -76.87 0.58, -92.53 0.88" stroke="#000000" stroke-width="1.5" fill="none" stroke-dasharray="8 9"></path></g><g transform="translate(604.1031746031747 942.4964823048836) rotate(0 -45.82677514385432 0.035870034741776635)"><path d="M-65.89 -10.37 C-76.25 -7.03, -86.69 -1.99, -92.06 0.36" stroke="#000000" stroke-width="1.5" fill="none"></path></g><g transform="translate(604.1031746031747 942.4964823048836) rotate(0 -45.82677514385432 0.035870034741776635)"><path d="M-65.49 10.14 C-76.01 5.71, -86.6 2.99, -92.06 0.36" stroke="#000000" stroke-width="1.5" fill="none"></path></g></g><g transform="translate(475.6031746031747 1376) rotate(0 89.5 13)"><text x="0" y="18" font-family="Virgil, Segoe UI Emoji" font-size="20px" fill="#000000" text-anchor="start" style="white-space: pre;" direction="ltr">Processed Output</text></g><g stroke-linecap="round" transform="translate(369.7103174603176 2092.75) rotate(0 80 88.5)"><path d="M1.39 0.01 C52.28 -2.29, 104.6 -0.08, 161.59 0.39 M-0.99 -0.08 C54.3 0.86, 107.84 0.79, 159.77 0.43 M159.75 1.26 C156.8 49.34, 156.94 102.31, 160.1 177.43 M159.14 -0.06 C161.34 55.62, 161 111.39, 159.52 177.8 M160.39 176.59 C118.68 177.81, 73.72 174.81, -0.19 178.8 M160.37 176.82 C123.05 177.67, 86.08 178.23, -0.87 176.95 M-0.89 177.26 C0.75 113.36, 2.21 53.14, -1.98 0.3 M0.24 177.58 C1.42 110.19, 0.26 44.75, -0.15 -0.01" stroke="#000000" stroke-width="1" fill="none"></path></g><g stroke-linecap="round" transform="translate(655.2103174603176 2094.25) rotate(0 82 86.5)"><path d="M0.01 0.28 C38.41 -0.55, 80.98 0.45, 164.39 0.74 M-0.08 0.37 C44.14 1.6, 87.65 1.39, 164.43 -0.14 M165.26 -1.54 C162.88 34.26, 165.2 71.41, 164.43 173.34 M163.94 -0.35 C161.92 67.71, 161.54 136.3, 164.8 172.65 M163.59 174.12 C113.84 171.92, 59.42 173.13, 1.8 171.57 M163.82 172.58 C118.01 172.75, 73.05 172.74, -0.05 173.54 M0.26 173.42 C-2.31 126.19, 0.11 73.64, 0.3 1.48 M0.58 173.19 C0.28 132.18, 1.02 93.17, -0.01 0.5" stroke="#000000" stroke-width="1" fill="none"></path></g><g stroke-linecap="round" transform="translate(1024.2103174603176 2258.25) rotate(0 85.5 336)"><path d="M0.28 -1.95 C55.44 0.25, 111.29 0.39, 171.74 -0.68 M0.37 0.55 C47.95 0.61, 95.71 0.56, 170.86 -0.94 M170.38 -0.52 C170.1 209.18, 170.7 417.71, 171.14 672.76 M170.86 -0.21 C168.42 140.71, 168.5 282.45, 170.86 672.05 M172.12 673.27 C123.19 669.91, 77.99 673.45, -1.43 671.55 M170.58 671.54 C106.67 671.78, 43.2 671.64, 0.54 671.81 M0.17 671.6 C1.95 420.32, 0.41 167.63, 0.59 -0.56 M0.07 671.75 C-1.04 505.54, -0.71 338.98, 0.2 0.01" stroke="#000000" stroke-width="1" fill="none"></path></g><g stroke-linecap="round"><g transform="translate(564.4160838696698 2130.7455514765616) rotate(0 42.222712477028495 0.7493782853073299)"><path d="M0.17 -1.17 C14.3 -1, 71.3 0.67, 85.65 1.05 M-1.2 0.83 C12.73 1.22, 70.36 2.38, 84.89 2.67" stroke="#000000" stroke-width="1" fill="none"></path></g><g transform="translate(564.4160838696698 2130.7455514765616) rotate(0 42.222712477028495 0.7493782853073299)"><path d="M54.54 12.95 C67.24 10.33, 77.88 5.9, 84.2 2.28 M57.04 12.34 C62.69 10.08, 68.36 8.22, 83.95 2.78" stroke="#000000" stroke-width="1" fill="none"></path></g><g transform="translate(564.4160838696698 2130.7455514765616) rotate(0 42.222712477028495 0.7493782853073299)"><path d="M54.96 -7.57 C67.51 -2.6, 77.99 0.55, 84.2 2.28 M57.46 -8.18 C63.01 -6.31, 68.59 -4.04, 83.95 2.78" stroke="#000000" stroke-width="1" fill="none"></path></g></g><g transform="translate(374.7103174603176 2153.25) rotate(0 75 28)"><text x="75" y="19" font-family="Virgil, Segoe UI Emoji" font-size="20px" fill="#000000" text-anchor="middle" style="white-space: pre;" direction="ltr">Browser </text><text x="75" y="47" font-family="Virgil, Segoe UI Emoji" font-size="20px" fill="#000000" text-anchor="middle" style="white-space: pre;" direction="ltr">Client</text></g><g transform="translate(660.2103174603176 2167.75) rotate(0 77 14)"><text x="77" y="19" font-family="Virgil, Segoe UI Emoji" font-size="20px" fill="#000000" text-anchor="middle" style="white-space: pre;" direction="ltr">Web App</text></g><g transform="translate(1029.2103174603176 2580.25) rotate(0 80.5 14)"><text x="80.5" y="19" font-family="Virgil, Segoe UI Emoji" font-size="20px" fill="#000000" text-anchor="middle" style="white-space: pre;" direction="ltr">ML Backend</text></g><g stroke-linecap="round"><g transform="translate(829.4373424389353 2269.5184921995583) rotate(0 88.30403474877801 -1.8523995080952318)"><path d="M0.96 0.24 C30.33 -0.45, 147.45 -3.12, 176.61 -3.94 M0 -0.69 C29.23 -1.21, 146.72 -2.06, 175.89 -2.62" stroke="#000000" stroke-width="1" fill="none"></path></g><g transform="translate(829.4373424389353 2269.5184921995583) rotate(0 88.30403474877801 -1.8523995080952318)"><path d="M148.23 8.73 C156.38 3.88, 164.34 0.62, 176.63 -1.52 M148.27 7.85 C155.21 5, 164.4 2.35, 175.12 -3.27" stroke="#000000" stroke-width="1" fill="none"></path></g><g transform="translate(829.4373424389353 2269.5184921995583) rotate(0 88.30403474877801 -1.8523995080952318)"><path d="M147.97 -11.79 C156.24 -9.88, 164.28 -6.37, 176.63 -1.52 M148.01 -12.67 C155.13 -9.4, 164.39 -5.92, 175.12 -3.27" stroke="#000000" stroke-width="1" fill="none"></path></g></g><g transform="translate(534.9603174603176 2094.25) rotate(0 27 13)"><text x="0" y="18" font-family="Virgil, Segoe UI Emoji" font-size="20px" fill="#000000" text-anchor="start" style="white-space: pre;" direction="ltr">Input</text></g><g transform="translate(832.4603174603176 2184.25) rotate(0 71 13)"><text x="0" y="18" font-family="Virgil, Segoe UI Emoji" font-size="20px" fill="#000000" text-anchor="start" style="white-space: pre;" direction="ltr">Modified Input</text></g><g stroke-linecap="round"><g transform="translate(640.4603174603176 2257.7464823048836) rotate(0 -46.931923777423776 0.6061790024214133)"><path d="M-0.41 -0.23 C-16.03 -0.07, -78.22 1.04, -93.45 1.45" stroke="#000000" stroke-width="1.5" fill="none" stroke-dasharray="8 9"></path></g><g transform="translate(640.4603174603176 2257.7464823048836) rotate(0 -46.931923777423776 0.6061790024214133)"><path d="M-65.88 -11.39 C-74.54 -5.3, -82.23 -2.6, -92.5 0.99" stroke="#000000" stroke-width="1.5" fill="none"></path></g><g transform="translate(640.4603174603176 2257.7464823048836) rotate(0 -46.931923777423776 0.6061790024214133)"><path d="M-65.44 9.13 C-74.32 8.66, -82.15 4.8, -92.5 0.99" stroke="#000000" stroke-width="1.5" fill="none"></path></g></g><g stroke-linecap="round" transform="translate(709.0405643738974 2697.953086419752) rotate(0 91.19753086419752 20.835390946502002)"><path d="M110.03 1.07 C123.25 1.29, 137.09 1.7, 148.01 3.79 C158.94 5.88, 169.81 10.58, 175.57 13.58 C181.33 16.59, 183.64 18.64, 182.57 21.82 C181.51 24.99, 176.65 29.86, 169.17 32.64 C161.69 35.42, 150.14 36.84, 137.7 38.49 C125.26 40.14, 108.83 42.28, 94.52 42.53 C80.21 42.79, 64.58 41.71, 51.84 40.02 C39.1 38.33, 26.53 35.03, 18.09 32.38 C9.65 29.73, 3.32 27.11, 1.2 24.11 C-0.93 21.11, 0.93 17.47, 5.32 14.37 C9.71 11.27, 17.33 7.82, 27.52 5.52 C37.71 3.21, 51.94 1.47, 66.46 0.52 C80.99 -0.43, 105.69 -0.48, 114.68 -0.19 C123.67 0.1, 120.61 1.69, 120.41 2.26 M112.28 1.23 C125.22 1.57, 138.72 4.16, 149.37 6.16 C160.03 8.17, 171.02 10.31, 176.2 13.27 C181.39 16.24, 182.2 20.52, 180.49 23.95 C178.78 27.39, 173.6 31.4, 165.93 33.86 C158.26 36.33, 146.63 37.44, 134.47 38.75 C122.31 40.07, 106.8 41.87, 92.96 41.75 C79.12 41.63, 64.21 39.37, 51.44 38.03 C38.68 36.68, 24.89 36.03, 16.36 33.69 C7.84 31.35, 1.92 27.15, 0.32 24 C-1.29 20.85, 1.95 17.75, 6.74 14.81 C11.52 11.87, 18.94 8.91, 29.03 6.38 C39.11 3.85, 53.53 0.52, 67.25 -0.36 C80.97 -1.25, 104.01 0.82, 111.35 1.07 C118.69 1.31, 111.55 1.06, 111.27 1.13" stroke="#000000" stroke-width="1" fill="none"></path></g><g stroke-linecap="round" transform="translate(708.6990005878898 2716.0559670781886) rotate(0 91.19753086419752 20.835390946502002)"><path d="M82.78 1.05 C95.9 0.35, 111.82 0.2, 124.96 1.21 C138.1 2.22, 152.36 4.44, 161.62 7.11 C170.89 9.79, 177.52 14.13, 180.55 17.26 C183.58 20.39, 183.52 23.03, 179.83 25.91 C176.13 28.79, 168.27 32.13, 158.38 34.52 C148.49 36.91, 133.85 39.11, 120.46 40.26 C107.07 41.41, 91.89 41.85, 78.05 41.41 C64.22 40.97, 49.03 39.37, 37.46 37.63 C25.88 35.89, 14.93 33.97, 8.58 30.98 C2.22 27.99, -1.19 23.07, -0.69 19.69 C-0.18 16.31, 4.58 13.45, 11.63 10.7 C18.67 7.94, 27.85 4.81, 41.59 3.16 C55.32 1.51, 83.71 1.16, 94.06 0.78 C104.41 0.41, 103.74 0.73, 103.7 0.91 M98.83 -0.99 C112.2 -1.18, 129 1.46, 140.96 3.31 C152.92 5.17, 163.55 7.32, 170.6 10.15 C177.65 12.98, 182.69 17.02, 183.26 20.31 C183.83 23.59, 180.55 26.76, 174.02 29.86 C167.49 32.96, 155.63 37.07, 144.1 38.93 C132.57 40.79, 118.66 40.73, 104.84 41.03 C91.02 41.33, 74.32 41.96, 61.19 40.73 C48.05 39.51, 35.75 36, 26.03 33.69 C16.32 31.38, 6.66 29.97, 2.88 26.87 C-0.89 23.77, 0.17 18.43, 3.38 15.09 C6.6 11.75, 13.36 9.25, 22.16 6.82 C30.95 4.39, 43.25 1.41, 56.17 0.5 C69.1 -0.42, 92.36 1.25, 99.7 1.33 C107.04 1.4, 100.38 0.61, 100.2 0.95" stroke="#000000" stroke-width="1" fill="none"></path></g><g stroke-linecap="round" transform="translate(710.0652557319232 2737.2329218107) rotate(0 91.19753086419752 20.835390946502002)"><path d="M80.4 -0.76 C93.42 -1.38, 109.42 0.49, 122.45 1.8 C135.48 3.12, 148.94 4.69, 158.6 7.12 C168.26 9.55, 176.93 13.2, 180.4 16.4 C183.88 19.59, 182.95 23.37, 179.46 26.27 C175.96 29.18, 168.66 31.43, 159.41 33.82 C150.17 36.21, 137.09 39.3, 124.01 40.61 C110.93 41.91, 94.94 42.21, 80.94 41.67 C66.94 41.12, 51.54 39.31, 40.01 37.36 C28.49 35.41, 18.55 32.68, 11.79 29.95 C5.03 27.23, -0.29 24.08, -0.57 20.99 C-0.84 17.9, 3.62 14.14, 10.14 11.4 C16.66 8.66, 25.18 6.44, 38.55 4.57 C51.92 2.69, 80.14 0.68, 90.35 0.13 C100.57 -0.43, 100.01 0.88, 99.86 1.23 M120.52 1.48 C133.46 2.31, 148.34 4.19, 158.05 6.66 C167.76 9.13, 175.07 13.05, 178.79 16.3 C182.5 19.55, 183.34 23.37, 180.33 26.17 C177.32 28.97, 169.65 30.8, 160.73 33.1 C151.81 35.41, 139.93 38.65, 126.79 40.01 C113.64 41.37, 96.11 41.35, 81.86 41.26 C67.61 41.16, 53.28 41.25, 41.31 39.45 C29.33 37.65, 16.8 33.25, 9.99 30.45 C3.18 27.66, 0.77 25.64, 0.45 22.67 C0.14 19.7, 2.02 15.76, 8.12 12.62 C14.21 9.49, 25.52 5.9, 37.01 3.88 C48.51 1.87, 62.76 0.81, 77.06 0.52 C91.36 0.23, 115.44 1.97, 122.84 2.16 C130.23 2.35, 121.95 1.56, 121.43 1.66" stroke="#000000" stroke-width="1" fill="none"></path></g><g stroke-linecap="round" transform="translate(708.0158730158729 2754.3111111111134) rotate(0 91.19753086419752 20.835390946502002)"><path d="M103.48 -0.14 C117.03 -0.22, 133.73 1.54, 145.35 3.64 C156.97 5.74, 166.91 9.58, 173.2 12.46 C179.49 15.33, 183.37 17.88, 183.09 20.88 C182.8 23.87, 178.61 27.56, 171.5 30.41 C164.4 33.27, 152.31 36.16, 140.44 38.01 C128.58 39.87, 114.24 41.19, 100.31 41.54 C86.39 41.89, 70.16 41.16, 56.9 40.11 C43.63 39.06, 29.99 37.8, 20.74 35.24 C11.5 32.68, 4.34 28.06, 1.42 24.75 C-1.51 21.45, -0.66 18.46, 3.19 15.41 C7.04 12.35, 14.78 8.67, 24.54 6.43 C34.3 4.19, 47.32 2.9, 61.74 1.96 C76.17 1.02, 101.77 0.95, 111.08 0.79 C120.39 0.64, 117.91 0.64, 117.59 1.04 M119.52 0.99 C132.8 1.75, 146.36 3.49, 156.35 5.81 C166.33 8.14, 175.26 11.81, 179.45 14.96 C183.65 18.11, 184.57 21.35, 181.53 24.72 C178.49 28.09, 170.19 32.71, 161.21 35.18 C152.22 37.64, 140.42 38.42, 127.62 39.52 C114.83 40.63, 98.3 42.22, 84.43 41.82 C70.56 41.41, 56.45 38.78, 44.41 37.12 C32.37 35.46, 19.34 34.63, 12.18 31.86 C5.03 29.09, 1.93 23.9, 1.48 20.49 C1.03 17.08, 3.79 14.28, 9.48 11.4 C15.17 8.52, 24.54 4.85, 35.63 3.21 C46.71 1.57, 61.9 1.84, 76 1.55 C90.1 1.26, 113.08 1.28, 120.2 1.46 C127.33 1.64, 119.44 2.6, 118.75 2.62" stroke="#000000" stroke-width="1" fill="none"></path></g><g transform="translate(747.9788359788358 2684.222222222222) rotate(0 41.5 7.9925925925927)"><text x="0" y="10.985185185185177" font-family="Virgil, Segoe UI Emoji" font-size="12.296296296296287px" fill="#000000" text-anchor="start" style="white-space: pre;" direction="ltr">Output Store</text></g><g stroke-linecap="round"><g transform="translate(1012.3809523809525 2764.0651695818838) rotate(0 -57.91919925090042 -0.9830197330913961)"><path d="M-0.37 -0.87 C-19.94 -1.57, -96.86 -3.08, -116.28 -3.26 M1.64 1.29 C-18.23 0.63, -98.11 -1.28, -117.48 -2.18" stroke="#000000" stroke-width="1" fill="none"></path></g><g transform="translate(1012.3809523809525 2764.0651695818838) rotate(0 -57.91919925090042 -0.9830197330913961)"><path d="M-90.4 -12.27 C-101.63 -9.68, -110.77 -5.1, -117.06 -3.55 M-89.09 -10.96 C-98.06 -8.82, -106.29 -4.74, -117.25 -2.64" stroke="#000000" stroke-width="1" fill="none"></path></g><g transform="translate(1012.3809523809525 2764.0651695818838) rotate(0 -57.91919925090042 -0.9830197330913961)"><path d="M-91.09 8.24 C-102.21 2.7, -111.08 -0.84, -117.06 -3.55 M-89.78 9.55 C-98.67 5.15, -106.68 2.68, -117.25 -2.64" stroke="#000000" stroke-width="1" fill="none"></path></g></g><g transform="translate(910.7936507936511 2683.1111111111113) rotate(0 43.5 13)"><text x="0" y="18" font-family="Virgil, Segoe UI Emoji" font-size="20px" fill="#000000" text-anchor="start" style="white-space: pre;" direction="ltr">Raw Out</text></g><g stroke-linecap="round" transform="translate(721.8183421516749 3047.739917695472) rotate(0 91.19753086419746 20.835390946502002)"><path d="M68.16 0.61 C80.68 -0.63, 98.07 -0.32, 111.66 0.28 C125.25 0.88, 138.96 2.17, 149.7 4.22 C160.44 6.26, 170.83 9.3, 176.1 12.53 C181.36 15.76, 182.95 20.28, 181.3 23.62 C179.66 26.95, 174.09 30.06, 166.22 32.56 C158.34 35.06, 146.41 37.1, 134.06 38.63 C121.7 40.15, 106.18 41.54, 92.08 41.73 C77.98 41.91, 61.87 41.26, 49.45 39.73 C37.02 38.21, 25.57 35.34, 17.53 32.57 C9.49 29.8, 3.18 26.07, 1.2 23.09 C-0.78 20.11, 1 17.57, 5.64 14.68 C10.28 11.79, 16.68 8.09, 29.02 5.75 C41.36 3.41, 69.15 1.48, 79.68 0.65 C90.22 -0.19, 91.78 0.43, 92.25 0.75 M81.11 0.94 C94.26 0.5, 111.55 1.21, 125.09 2.2 C138.62 3.18, 152.86 4.27, 162.29 6.85 C171.72 9.42, 178.76 14.17, 181.66 17.65 C184.56 21.13, 183.82 25.03, 179.69 27.73 C175.56 30.43, 166.72 31.93, 156.89 33.85 C147.05 35.76, 134.04 37.73, 120.68 39.21 C107.33 40.69, 90.35 42.84, 76.76 42.74 C63.16 42.64, 50.53 40.88, 39.09 38.62 C27.65 36.37, 14.87 32.13, 8.13 29.21 C1.38 26.28, -2.13 24.19, -1.39 21.05 C-0.65 17.91, 5.37 13.42, 12.56 10.37 C19.74 7.32, 30.21 4.24, 41.72 2.77 C53.24 1.31, 75.07 2.1, 81.64 1.59 C88.21 1.09, 80.84 -0.19, 81.13 -0.24" stroke="#000000" stroke-width="1" fill="none"></path></g><g stroke-linecap="round" transform="translate(721.4767783656673 3065.842798353908) rotate(0 91.19753086419746 20.835390946502002)"><path d="M119.95 1 C132.94 1.5, 147 3.06, 156.67 5.42 C166.33 7.77, 174.08 11.97, 177.95 15.13 C181.83 18.3, 182.51 21.4, 179.93 24.41 C177.35 27.43, 171.25 30.74, 162.45 33.22 C153.65 35.71, 140.31 37.98, 127.14 39.31 C113.97 40.63, 97.5 41.39, 83.41 41.16 C69.31 40.93, 54.38 39.45, 42.57 37.91 C30.76 36.36, 19.7 34.53, 12.56 31.89 C5.42 29.25, 0.45 25.35, -0.27 22.05 C-0.99 18.75, 1.96 15.19, 8.22 12.09 C14.49 9, 25.88 5.58, 37.31 3.48 C48.74 1.37, 62.03 -0.07, 76.81 -0.53 C91.6 -0.99, 117.08 0.08, 126.01 0.73 C134.93 1.38, 130.98 2.93, 130.39 3.36 M90.53 -0.48 C104.09 -0.39, 120.52 1.86, 132.9 3.63 C145.29 5.4, 156.51 7.66, 164.84 10.13 C173.16 12.61, 180.59 15.7, 182.85 18.47 C185.11 21.25, 183.62 23.97, 178.41 26.79 C173.21 29.61, 162.49 33.24, 151.62 35.39 C140.75 37.54, 126.46 38.49, 113.21 39.69 C99.96 40.9, 85.53 43.35, 72.13 42.62 C58.72 41.9, 43.88 37.91, 32.79 35.33 C21.7 32.74, 10.87 29.73, 5.61 27.13 C0.34 24.53, -0.34 22.63, 1.21 19.74 C2.77 16.85, 7.35 12.79, 14.95 9.81 C22.56 6.82, 34.14 3.69, 46.85 1.82 C59.56 -0.05, 84.17 -1.2, 91.19 -1.42 C98.2 -1.63, 89.33 -0.03, 88.97 0.53" stroke="#000000" stroke-width="1" fill="none"></path></g><g stroke-linecap="round" transform="translate(722.8430335097007 3087.0197530864193) rotate(0 91.19753086419746 20.835390946502002)"><path d="M125.69 1.3 C138.44 2.05, 150.92 4.2, 160.04 6.61 C169.16 9.02, 177.31 12.36, 180.39 15.75 C183.48 19.13, 182.45 23.68, 178.57 26.92 C174.68 30.16, 166.74 33.01, 157.08 35.19 C147.42 37.37, 133.88 38.94, 120.6 39.99 C107.32 41.04, 91.35 41.84, 77.4 41.51 C63.45 41.17, 48.13 39.95, 36.9 37.98 C25.66 36.01, 16.07 32.72, 9.99 29.68 C3.9 26.64, 0.1 22.74, 0.4 19.73 C0.69 16.72, 5.05 14.3, 11.76 11.62 C18.47 8.95, 28.99 5.53, 40.66 3.69 C52.33 1.85, 66.18 0.73, 81.77 0.59 C97.37 0.46, 123.92 2.24, 134.23 2.9 C144.54 3.55, 144.24 4.28, 143.61 4.52 M79.8 0.81 C93.41 -0.09, 111.49 -0.44, 125.02 0.81 C138.54 2.07, 151.72 5.6, 160.93 8.35 C170.14 11.09, 177.31 14.57, 180.26 17.29 C183.2 20.01, 182.23 21.98, 178.62 24.67 C175.01 27.35, 168.01 30.57, 158.6 33.39 C149.19 36.21, 135.01 40.1, 122.17 41.61 C109.34 43.12, 95.63 43.2, 81.6 42.45 C67.57 41.7, 50.09 38.98, 37.99 37.1 C25.89 35.23, 15.14 33.99, 8.99 31.22 C2.84 28.45, 0.74 23.93, 1.08 20.47 C1.41 17.02, 4.73 13.05, 11.01 10.5 C17.28 7.95, 27.42 7.02, 38.73 5.17 C50.04 3.32, 71.89 0.31, 78.87 -0.6 C85.85 -1.51, 80.22 -0.65, 80.61 -0.29" stroke="#000000" stroke-width="1" fill="none"></path></g><g stroke-linecap="round" transform="translate(720.7936507936504 3104.0979423868325) rotate(0 91.19753086419746 20.835390946502002)"><path d="M94.2 -0.96 C107.54 -1.13, 123.41 1.18, 135.62 2.85 C147.82 4.52, 159.59 6.47, 167.42 9.04 C175.26 11.62, 181.31 15.09, 182.63 18.29 C183.96 21.48, 181.05 25.19, 175.39 28.22 C169.73 31.25, 159.59 34.39, 148.68 36.47 C137.76 38.55, 123.59 39.85, 109.9 40.68 C96.21 41.52, 80.18 42.23, 66.53 41.5 C52.87 40.77, 38.35 38.59, 27.97 36.29 C17.59 33.99, 8.59 30.93, 4.27 27.7 C-0.05 24.46, -0.28 20.22, 2.06 16.87 C4.41 13.52, 9.99 10.2, 18.35 7.59 C26.71 4.99, 36.57 2.27, 52.23 1.25 C67.9 0.23, 99.65 1.33, 112.34 1.46 C125.03 1.59, 128.8 1.89, 128.4 2.04 M54.44 3.24 C65.9 2.01, 81.96 1.41, 96.17 1.45 C110.38 1.5, 127.28 2.25, 139.7 3.5 C152.12 4.75, 163.78 6.41, 170.67 8.95 C177.56 11.5, 180.65 15.58, 181.05 18.77 C181.46 21.97, 178.47 24.78, 173.08 28.1 C167.69 31.43, 159.47 36.73, 148.72 38.72 C137.96 40.7, 122.81 39.9, 108.56 40 C94.3 40.1, 76.71 39.87, 63.19 39.31 C49.67 38.75, 37.32 38.6, 27.42 36.64 C17.52 34.68, 8.21 30.94, 3.78 27.55 C-0.65 24.17, -2 19.84, 0.86 16.34 C3.71 12.85, 12.22 8.96, 20.91 6.56 C29.6 4.16, 47.56 2.7, 53.02 1.94 C58.48 1.19, 53.03 1.49, 53.67 2.03" stroke="#000000" stroke-width="1" fill="none"></path></g><g transform="translate(760.7566137566137 3034.0090534979413) rotate(0 41.5 7.9925925925927)"><text x="0" y="10.985185185185177" font-family="Virgil, Segoe UI Emoji" font-size="12.296296296296287px" fill="#000000" text-anchor="start" style="white-space: pre;" direction="ltr">Output Store</text></g><g stroke-linecap="round"><g transform="translate(708.5689712974793 3119.671122819298) rotate(0 -52.430994754985136 -1.2294350577396926)"><path d="M0.6 -0.58 C-17.14 -1.12, -88.11 -2.11, -105.46 -2.32 M-0.55 1.72 C-18.01 0.74, -86.11 -3.28, -103.33 -4.18" stroke="#000000" stroke-width="1" fill="none"></path></g><g transform="translate(708.5689712974793 3119.671122819298) rotate(0 -52.430994754985136 -1.2294350577396926)"><path d="M-75.58 -14.69 C-84.58 -8.02, -94.69 -7.02, -105.16 -5.39 M-73.75 -13.65 C-82.99 -10.69, -91.23 -8.24, -104.16 -4.4" stroke="#000000" stroke-width="1" fill="none"></path></g><g transform="translate(708.5689712974793 3119.671122819298) rotate(0 -52.430994754985136 -1.2294350577396926)"><path d="M-76.73 5.79 C-85.45 4.7, -95.12 -2.06, -105.16 -5.39 M-74.9 6.84 C-83.83 4.2, -91.75 1.05, -104.16 -4.4" stroke="#000000" stroke-width="1" fill="none"></path></g></g><g transform="translate(327.1428571428572 1990.9444444444448) rotate(0 93 18.5)"><text x="0" y="26" font-family="Virgil, Segoe UI Emoji" font-size="28px" fill="#000000" text-anchor="start" style="white-space: pre;" direction="ltr">Set &amp; Forget</text></g><g transform="translate(10 1102.4444444444453) rotate(0 385.5 55)"><text x="0" y="25.666666666666664" font-family="Virgil, Segoe UI Emoji" font-size="28px" fill="#000000" text-anchor="start" style="white-space: pre;" direction="ltr"> - Flow of control is in line with flow of data</text><text x="0" y="62.33333333333333" font-family="Virgil, Segoe UI Emoji" font-size="28px" fill="#000000" text-anchor="start" style="white-space: pre;" direction="ltr"> - Not practical for large output</text><text x="0" y="99" font-family="Virgil, Segoe UI Emoji" font-size="28px" fill="#000000" text-anchor="start" style="white-space: pre;" direction="ltr"> - Simplest ML backend -&gt; Web app channel probs HTTP</text></g><g transform="translate(51.642857142857224 2389.0158730158732) rotate(0 419.49999999999994 73.5)"><text x="0" y="25.75" font-family="Virgil, Segoe UI Emoji" font-size="28px" fill="#000000" text-anchor="start" style="white-space: pre;" direction="ltr"> - Flow of control is reversed on output retrieval</text><text x="0" y="62.5" font-family="Virgil, Segoe UI Emoji" font-size="28px" fill="#000000" text-anchor="start" style="white-space: pre;" direction="ltr"> - Probs better for large volume output</text><text x="0" y="99.25" font-family="Virgil, Segoe UI Emoji" font-size="28px" fill="#000000" text-anchor="start" style="white-space: pre;" direction="ltr"> - Maybe have an output storage and a completion notifier?</text><text x="0" y="136" font-family="Virgil, Segoe UI Emoji" font-size="28px" fill="#000000" text-anchor="start" style="white-space: pre;" direction="ltr"> - Useful for model training?</text></g><g stroke-linecap="round"><g transform="translate(1003.6234920579898 2905.219243146638) rotate(0 -195.9660889124986 1.3086799028938003)"><path d="M-0.34 0.05 C-65.53 0.49, -326.22 1.97, -391.59 2.57" stroke="#000000" stroke-width="1.5" fill="none" stroke-dasharray="8 9"></path></g><g transform="translate(1003.6234920579898 2905.219243146638) rotate(0 -195.9660889124986 1.3086799028938003)"><path d="M-363.39 -6.76 C-370.78 -5.74, -376.4 -3.98, -389.86 3.54" stroke="#000000" stroke-width="1.5" fill="none"></path></g><g transform="translate(1003.6234920579898 2905.219243146638) rotate(0 -195.9660889124986 1.3086799028938003)"><path d="M-363.24 13.76 C-370.66 9.43, -376.32 5.83, -389.86 3.54" stroke="#000000" stroke-width="1.5" fill="none"></path></g></g><g stroke-linecap="round" transform="translate(431.42857142857156 2888.3730158730154) rotate(0 80 138.5)"><path d="M-0.2 -1.43 C52.84 1.3, 104.05 0.02, 160.09 -0.19 M0.01 -0.65 C44.92 0.88, 88.68 0.19, 159.47 0.64 M160.96 0.62 C161.03 105.36, 161.85 211.79, 161.53 278.3 M159.72 0.06 C161.97 74.22, 160.96 149.77, 160.39 277.2 M159.06 275.38 C124.41 276.45, 93.25 276.42, 0.02 278.45 M159.96 276.31 C120.11 275.79, 80.87 276.24, 0.56 276.98 M-0.04 277.34 C-0.97 219.29, 1.48 163.16, 1.41 1.38 M0.14 277.13 C-2 212.27, -1.31 146.99, -0.22 0.04" stroke="#000000" stroke-width="1" fill="none"></path></g><g transform="translate(436.42857142857156 3012.8730158730154) rotate(0 75 14)"><text x="75" y="19" font-family="Virgil, Segoe UI Emoji" font-size="20px" fill="#000000" text-anchor="middle" style="white-space: pre;" direction="ltr">Web App</text></g><g transform="translate(734.2857142857144 2867.9444444444443) rotate(0 30 13)"><text x="0" y="18" font-family="Virgil, Segoe UI Emoji" font-size="20px" fill="#000000" text-anchor="start" style="white-space: pre;" direction="ltr">Notify</text></g><g stroke-linecap="round"><g transform="translate(602.9000806748427 3043.05936869048) rotate(0 53.434564687052784 14.913876250805288)"><path d="M0.72 0.49 C18.79 5.54, 89.62 25.23, 107.22 30.13 M-0.35 -0.3 C17.7 4.41, 88.93 22.99, 106.55 28.26" stroke="#000000" stroke-width="1" fill="none"></path></g><g transform="translate(602.9000806748427 3043.05936869048) rotate(0 53.434564687052784 14.913876250805288)"><path d="M77.45 31.48 C83.5 29.31, 89.17 27.99, 105.81 27.9 M76.53 29.75 C82.57 29.26, 89.76 30.51, 106.95 28.04" stroke="#000000" stroke-width="1" fill="none"></path></g><g transform="translate(602.9000806748427 3043.05936869048) rotate(0 53.434564687052784 14.913876250805288)"><path d="M82.93 11.71 C87.84 13.56, 92.41 16.24, 105.81 27.9 M82.01 9.98 C86.92 14.05, 92.84 19.89, 106.95 28.04" stroke="#000000" stroke-width="1" fill="none"></path></g></g></svg>